# xmcd
# 
# Track frame offsets:
#     150
#     16762
#     33085
#     49242
#     64462
#     76770
#     96480
#     115695
#     146380
#     161362
#     176487
#     198452
#     214480
#     227262
#     243202
#     258127
#     274967
# 
# Disc length: 3887
# 
# Revision: 5
# Processed by: cddbd v1.5.2PL0 Copyright (c) Steve Scherf et al.
# Submitted via: fre:ac v1.1beta1pre5
# 
DISCID=de0f2d11
DTITLE=i Camaleonti - 17 Versioni Originali!
DYEAR=1997
DGENRE=beat/pop
TTITLE0=Applausi
TTITLE1=Io per lei (To give the reason I live)
TTITLE2=L'ora dell'amore (Homburg)
TTITLE3=Eternità
TTITLE4=Viso d'angelo
TTITLE5=Piccola Venere
TTITLE6=Il campo delle fragole
TTITLE7=Lei mi darà un bambino (She's gonna give me a baby)
TTITLE8=Perché ti amo
TTITLE9=Come sei bella
TTITLE10=Angelo mio
TTITLE11=Casa bianca
TTITLE12=Non c'è niente di nuovo
TTITLE13=Mamma mia
TTITLE14=Lei aspetta te
TTITLE15=Tempo d'inverno
TTITLE16=Ti amo da un'ora
EXTD=YEAR: 1997
EXTT0=
EXTT1=
EXTT2=
EXTT3=
EXTT4=
EXTT5=
EXTT6=
EXTT7=
EXTT8=
EXTT9=
EXTT10=
EXTT11=
EXTT12=
EXTT13=
EXTT14=
EXTT15=
EXTT16=
PLAYORDER=
